HIERARCHY
ROOT pelvis
{
  OFFSET 0 0 0
  CHANNELS 6 Xposition Yposition Zposition Zrotation Xrotation Yrotation
  JOINT pelvis_right_femur
  {
    OFFSET -11.43119 -3.542788 0.2090856
    CHANNELS 3 Zrotation Xrotation Yrotation
    JOINT right_femur_tibia
    {
      OFFSET -1.028693 -40.73281 5
      CHANNELS 3 Zrotation Xrotation Yrotation
      JOINT right_tibia_foot
      {
        OFFSET -0.5013517 -42.05707 -5
        CHANNELS 3 Zrotation Xrotation Yrotation
        End Site
        {
          OFFSET 0 -5 10
        }
      }
    }
  }
  JOINT pelvis_left_femur
  {
    OFFSET 11.43119 -3.542788 0.2090856
    CHANNELS 3 Zrotation Xrotation Yrotation
    JOINT left_femur_tibia
    {
      OFFSET 1.028693 -40.73281 5
      CHANNELS 3 Zrotation Xrotation Yrotation
      JOINT left_tibia_foot
      {
        OFFSET 0.3200228 -42.98253 -5
        CHANNELS 3 Zrotation Xrotation Yrotation
        End Site
        {
          OFFSET 0 -5 10
        }
      }
    }
  }
  JOINT pelvis_spine1
  {
    OFFSET 0 8.64413 -3.209807
    CHANNELS 3 Zrotation Xrotation Yrotation
    JOINT spine1
    {
      OFFSET 0 29.53957 -1.762685
      CHANNELS 3 Zrotation Xrotation Yrotation
      JOINT spine2
      {
        OFFSET 0 16.36153 -0.1422377
        CHANNELS 3 Zrotation Xrotation Yrotation
        JOINT neck
        {
          OFFSET 0 11.60093 5
          CHANNELS 3 Zrotation Xrotation Yrotation
          End Site
          {
            OFFSET 0 20 0
          }
        }
      }
      JOINT right_manubrium
      {
        OFFSET -4.671311 15.89868 4
        CHANNELS 3 Zrotation Xrotation Yrotation
        JOINT right_clavicle
        {
          OFFSET -13.601 1.573642 -2.74176
          CHANNELS 3 Zrotation Xrotation Yrotation
          JOINT right_humerus
          {
            OFFSET -0.06331682 -27.72702 2.252146
            CHANNELS 3 Zrotation Xrotation Yrotation
            JOINT right_radius
            {
              OFFSET -0.5696302 -23.92083 0.4042105
              CHANNELS 3 Zrotation Xrotation Yrotation
              End Site
              {
                OFFSET 0 -15 0
              }
            }
          }
        }
      }
      JOINT left_manubrium
      {
        OFFSET 4.671311 15.89868 4
        CHANNELS 3 Zrotation Xrotation Yrotation
        JOINT left_clavicle
        {
          OFFSET 13.601 1.573642 -2.74176
          CHANNELS 3 Zrotation Xrotation Yrotation
          JOINT left_humerus
          {
            OFFSET 0.000209614 -29.01858 1.101395
            CHANNELS 3 Zrotation Xrotation Yrotation
            JOINT left_radius
            {
              OFFSET -0.2288314 -24.59216 1.790347
              CHANNELS 3 Zrotation Xrotation Yrotation
              End Site
              {
                OFFSET 0 -15 0
              }
            }
          }
        }
      }
    }
  }
}
MOTION
Frames: 9
Frame Time: 0.0416666666667
0 48.26591 0 -2.827676 -18.6666 -0.7666261 -56.56699 -61.66971 -55.20106 -180 85.24945 -180 5.770446 5.611676 -1.46367 69.2643 -52.01792 65.58443 -180 80.23573 -180 -4.817424 3.390665 -19.34023 -1.648824 20.78427 1.9001 8.063162 14.34876 -9.513629 -12.68272 9.873276 7.647293 8.114667 -28.89995 -0.4104833 20.12973 -7.745572 23.14466 -63.15979 -29.18524 15.11298 0 -72.12578 0 -0.7352069 -14.23987 25.5531 -27.59042 -29.90724 -3.842681 48.32972 -25.36605 -28.23541 0 -74.82333 0 -12.01076 22.22428 -39.57916
-0.01583623 48.24564 -0.04821963 -2.772752 -18.63709 -0.4810473 -56.7514 -61.58642 -55.29195 -180 85.24179 -180 5.792093 5.57401 -1.578458 69.30882 -52.18094 65.77725 -180 80.28638 -180 -4.758129 3.478533 -19.44606 -1.728034 21.02048 2.051303 8.559269 14.28337 -9.748169 -12.90484 9.56511 7.671319 8.11332 -29.12475 -0.6918773 21.03293 -8.823097 22.21611 -63.24551 -26.91888 12.101 0 -72.69558 0 -4.228276 -17.42515 23.7929 -27.71423 -30.10603 -3.756039 48.17967 -25.41783 -28.39072 0 -75.09004 0 -12.01845 22.22352 -39.56794
0.0007453598 48.29062 -0.03469708 -2.841848 -18.58721 -0.1710727 -56.69462 -61.4026 -55.22349 -180 85.26943 -180 5.803783 5.521767 -1.657189 69.39277 -52.30053 65.96691 -180 80.33496 -180 -4.699809 3.52736 -19.56178 -1.720368 21.153 1.985359 9.247595 14.36185 -10.15127 -13.38064 9.336126 7.820561 8.013502 -29.39855 -0.9230518 22.60807 -10.79579 20.98781 -63.49606 -24.27088 7.712733 0 -72.80721 0 -8.732324 -20.76897 21.32985 -27.95248 -30.35866 -3.440647 48.07731 -25.36166 -28.4394 0 -75.50912 0 -11.99054 22.18829 -39.56443
0.1528132 48.41802 -0.0179627 -3.146267 -18.49701 0.05600641 -56.38878 -61.17194 -54.99153 -180 85.40657 -180 5.812284 5.516337 -1.739366 69.616 -52.39933 66.23942 -180 80.34057 -180 -4.65322 3.543399 -19.67641 -1.42454 21.33831 1.575134 9.958405 14.34107 -10.62716 -14.02139 9.161329 8.128701 7.812538 -29.68613 -0.9834308 24.49769 -13.59897 19.84699 -63.80132 -21.61195 2.512114 0 -71.89501 0 -13.94548 -23.82012 18.13416 -28.22635 -30.58532 -2.915013 48.07138 -25.10574 -28.33821 0 -76.10246 0 -11.93135 22.13065 -39.56435
0.2466278 48.42285 0.03413757 -3.24691 -18.34571 -0.003178075 -56.37139 -61.32652 -54.92992 -180 85.43306 -180 5.806732 5.515145 -1.788043 69.95032 -52.27125 66.6684 -180 80.27055 -180 -4.649658 3.516861 -19.79218 -1.48048 21.48016 1.203793 10.42023 14.14676 -10.89883 -14.66217 9.099193 8.506599 7.566435 -29.84442 -0.9273864 26.25295 -16.96511 19.33326 -64.26031 -19.33329 -2.795746 0 -69.31874 0 -19.09319 -25.95015 14.44449 -28.27521 -30.76671 -2.340493 48.22829 -24.747 -28.15087 0 -76.77876 0 -11.85761 22.06669 -39.56551
0.2284947 48.3041 0.07554876 -3.046866 -18.10464 -0.2773908 -56.90453 -61.86172 -55.29524 -180 85.32521 -180 5.786455 5.528436 -1.781557 70.29978 -52.00324 67.24632 -180 80.17625 -180 -4.702101 3.462094 -19.83954 -1.838594 21.59983 1.037924 10.45271 13.79074 -10.88955 -15.1875 9.083331 8.80944 7.343575 -29.85626 -0.9067119 27.36794 -20.52164 19.60807 -65.09207 -17.45773 -7.645033 0 -64.52987 0 -23.22363 -26.69149 10.70437 -28.0524 -30.87966 -1.846245 48.5374 -24.34844 -27.94871 0 -77.53672 0 -11.79804 21.98977 -39.56594
0.3025617 48.30164 0.1308828 -3.009464 -17.8664 -0.5787838 -57.25174 -62.18575 -55.62035 -180 85.31335 -180 5.748664 5.575167 -1.723573 70.53114 -51.80021 67.6254 -180 80.08365 -180 -4.773649 3.37531 -19.8203 -1.651363 21.73121 0.8265351 10.14404 13.55454 -10.78528 -15.622 8.952185 9.001137 7.146866 -29.94056 -0.9945383 27.6 -23.84784 20.4196 -66.35806 -15.84613 -11.53834 0 -57.97706 0 -25.81297 -26.33137 7.45535 -27.91698 -30.93907 -1.54892 48.89051 -23.89922 -27.77457 0 -78.29073 0 -11.75772 21.88056 -39.56024
0.4344691 48.38672 0.2100697 -3.077916 -17.69155 -0.8434619 -57.47249 -62.26955 -55.90051 -180 85.36763 -180 5.683544 5.635825 -1.583928 70.57431 -51.71744 67.70904 -180 80.02614 -180 -4.850899 3.26924 -19.71349 -1.131826 21.81117 0.637578 9.63922 13.52919 -10.67144 -15.91771 8.725421 9.041165 7.028606 -30.07194 -1.208155 27.00714 -26.57196 21.43687 -67.92354 -14.49984 -14.19967 0 -50.75784 0 -26.83746 -25.45714 4.947391 -27.88225 -31.0155 -1.470587 49.24024 -23.48904 -27.63037 0 -78.91555 0 -11.73963 21.75671 -39.54132
0.2690835 48.28015 0.1996072 -2.752971 -17.50197 -1.162931 -58.22516 -62.6767 -56.6354 -180 85.25862 -180 5.616406 5.678663 -1.431313 70.63921 -51.62633 67.8225 -180 80.01109 -180 -4.949326 3.184521 -19.52653 -1.222489 21.87206 0.9124541 9.015198 13.50014 -10.43786 -16.12432 8.45833 8.974379 6.932026 -30.09725 -1.552214 25.82797 -28.57391 22.32777 -69.38676 -13.40162 -15.57733 0 -43.89837 0 -26.49725 -24.50611 3.200853 -27.61345 -31.19752 -1.475823 49.69036 -23.20279 -27.44231 0 -79.45738 0 -11.74363 21.6084 -39.51079
